<svg width="140" height="139" xmlns="http://www.w3.org/2000/svg">
 <!-- Created with Method Draw - http://github.com/duopixel/Method-Draw/ -->

 <g>
  <title>background</title>
  <rect fill="none" id="canvas_background" height="141" width="142" y="-1" x="-1"/>
  <g display="none" overflow="visible" y="0" x="0" height="100%" width="100%" id="canvasGrid">
   <rect fill="url(#gridpattern)" stroke-width="0" y="0" x="0" height="100%" width="100%"/>
  </g>
 </g>
 <g>
  <title>Layer 1</title>
  <g fill="white" id="svg_22">
   <g stroke="null" transform="matrix(0.19125604857196168,0,0,0.19125604857196168,-834.5263761512615,-638.8773824265372) " id="svg_5">
    <path fill="#d40e31" stroke="null" id="svg_6" d="m4931.499807,3721.532906l94.233,193.581c3.832,7.873 -0.196,14.314 -8.952,14.314l-591.195,0c-8.756,0 -12.785,-6.441 -8.952,-14.314l94.234,-193.581c1.499,-3.079 5.528,-5.599 8.952,-5.599l80.801,0c2.49,0 5.853,1.559 7.483,3.442c5.482,6.335 11.066,12.524 16.634,18.65c5.288,5.815 10.604,11.706 15.878,17.735l-95.891,0c-3.425,0 -7.454,2.519 -8.952,5.599l-62.426,128.242l495.67,0l-62.421,-128.242c-1.498,-3.08 -5.527,-5.599 -8.953,-5.599l-96.108,0c5.273,-6.029 10.591,-11.92 15.879,-17.735c5.585,-6.144 11.2,-12.321 16.695,-18.658c1.628,-1.878 4.984,-3.434 7.47,-3.434l80.971,0c3.423,0 7.451,2.518 8.95,5.599zm-71.775,-132.292c0,105.776 -88.058,125.614 -129.472,227.265c-3.365,8.26 -14.994,8.218 -18.36,-0.04c-37.359,-91.651 -112.638,-116.784 -127.041,-198.432c-14.181,-80.379 41.471,-159.115 122.729,-166.796c82.64,-7.812 152.144,56.979 152.144,138.003zm-65.427,0c0,-40.436 -32.779,-73.216 -73.216,-73.216s-73.216,32.78 -73.216,73.216c0,40.437 32.779,73.216 73.216,73.216s73.216,-32.779 73.216,-73.216z"/>
   </g>
   <g stroke="null" transform="matrix(0.19125604857196168,0,0,0.19125604857196168,-834.5263761512615,-640.3059560349357) " id="svg_7"/>
   <g stroke="null" transform="matrix(0.19125604857196168,0,0,0.19125604857196168,-834.5263761512615,-640.3059560349357) " id="svg_8"/>
   <g stroke="null" transform="matrix(0.19125604857196168,0,0,0.19125604857196168,-834.5263761512615,-640.3059560349357) " id="svg_9"/>
   <g stroke="null" transform="matrix(0.19125604857196168,0,0,0.19125604857196168,-834.5263761512615,-640.3059560349357) " id="svg_10"/>
   <g stroke="null" transform="matrix(0.19125604857196168,0,0,0.19125604857196168,-834.5263761512615,-640.3059560349357) " id="svg_11"/>
   <g stroke="null" transform="matrix(0.19125604857196168,0,0,0.19125604857196168,-834.5263761512615,-640.3059560349357) " id="svg_12"/>
   <g stroke="null" transform="matrix(0.19125604857196168,0,0,0.19125604857196168,-834.5263761512615,-640.3059560349357) " id="svg_13"/>
   <g stroke="null" transform="matrix(0.19125604857196168,0,0,0.19125604857196168,-834.5263761512615,-640.3059560349357) " id="svg_14"/>
   <g stroke="null" transform="matrix(0.19125604857196168,0,0,0.19125604857196168,-834.5263761512615,-640.3059560349357) " id="svg_15"/>
   <g stroke="null" transform="matrix(0.19125604857196168,0,0,0.19125604857196168,-834.5263761512615,-640.3059560349357) " id="svg_16"/>
   <g stroke="null" transform="matrix(0.19125604857196168,0,0,0.19125604857196168,-834.5263761512615,-640.3059560349357) " id="svg_17"/>
   <g stroke="null" transform="matrix(0.19125604857196168,0,0,0.19125604857196168,-834.5263761512615,-640.3059560349357) " id="svg_18"/>
   <g stroke="null" transform="matrix(0.19125604857196168,0,0,0.19125604857196168,-834.5263761512615,-640.3059560349357) " id="svg_19"/>
   <g stroke="null" transform="matrix(0.19125604857196168,0,0,0.19125604857196168,-834.5263761512615,-640.3059560349357) " id="svg_20"/>
   <g stroke="null" transform="matrix(0.19125604857196168,0,0,0.19125604857196168,-834.5263761512615,-640.3059560349357) " id="svg_21"/>
  </g>
  <text xml:space="preserve" text-anchor="start" font-family="Helvetica, Arial, sans-serif" font-size="24" id="svg_32" y="40.384499" x="-61.15409" stroke-width="0" stroke="#000" fill="#000000"/>
  <path stroke="#d40e31" id="svg_34" d="m59.197778,42.7616l4.475991,-4.475991l4.754776,4.754737l4.754776,-4.754737l4.476033,4.475991l-4.754777,4.754776l4.754777,4.754776l-4.476033,4.476033l-4.754776,-4.754777l-4.754776,4.754777l-4.475991,-4.476033l4.754737,-4.754776l-4.754737,-4.754776z" fill-opacity="null" stroke-width="0" fill="#d40e31"/>
 </g>
</svg>