<svg xmlns="http://www.w3.org/2000/svg" viewBox="0 0 1920 1080" preserveAspectRatio="xMinYMin slice" aria-hidden="true">
  <defs>
    <style>
      .cls-1 {
        fill: #dc0b35;
      }

      .cls-2 {
        fill: #d30a32;
      }

      .cls-3 {
        fill: #c81035;
      }

      .cls-4 {
        fill: #c21033;
      }

      .cls-5 {
        fill: #be1032;
      }

      .cls-6 {
        fill: #ad0e2e;
      }

      .cls-7 {
        fill: #a40a29;
      }
    </style>
  </defs>
  <g id="goog" transform="translate(-10 0)">
    <path class="cls-1" d="M1287.735,0c-2.973,17.206-6.082,34.413-9.325,51.35,58.244,64.795,136.759,162.387,218.384,294.393V0Z" transform="translate(433.206)"/>
    <path class="cls-2" d="M1323.921,38.2c-43.6,228.9-108.8,436.48-179.1,615.523v5.067a4218.205,4218.205,0,0,1,126.722,408.483h268.912V329.626c-80.9-130.651-158.707-227.307-216.533-291.431Z" transform="translate(389.546 12.731)"/>
    <path class="cls-3" d="M1226.469,669.13c70.5-179.555,136.031-388.192,179.723-618.172,1.608-8.138,3.083-16.407,4.557-24.678,0-.267.134-.534.134-.8,1.474-8.405,3.083-16.944,4.557-25.48h-512.9c141.126,225.846,246.2,457.827,323.932,669.264Z" transform="translate(309.104 0)"/>
    <path class="cls-4" d="M608.518,0c-20.1,85.509-41.148,167.15-62.456,245.187C664,434.348,817.189,735.03,912.745,1080h562.492C1401.794,792.125,1265.894,386.991,1023.985,0Z" transform="translate(189.801)"/>
    <path class="cls-5" d="M601.6,183.777C529.5,446.04,452.032,665.616,382.472,838.5c15.682,59.362,30.559,119.527,44.364,180.089H968.417C872.861,673.753,719.674,372.938,601.6,183.777Z" transform="translate(136.14 61.41)"/>
    <path class="cls-6" d="M153.89,0C253.2,241.053,369.8,556.941,460.129,899.912,550.328,675.533,654.059,372.85,741.846,0Z" transform="translate(60.36)"/>
    <path class="cls-7" d="M206.261,0H0V1080H556.994C463.048,668.33,322.86,282.673,206.261,0Z" transform="translate(10)"/>
  </g>
</svg>
